HIERARCHY
ROOT root
{
	OFFSET 0.000000 0.000000 0.000000
	CHANNELS 6 Xposition Yposition Zposition Zrotation Yrotation Xrotation
	JOINT lhip
	{
		OFFSET 0.058581 -0.082280 -0.017664
		CHANNELS 3 Zrotation Yrotation Xrotation
		JOINT lknee
		{
			OFFSET 0.043451 -0.386469 0.008037
			CHANNELS 3 Zrotation Yrotation Xrotation
			JOINT lankle
			{
				OFFSET -0.014790 -0.426874 -0.037428
				CHANNELS 3 Zrotation Yrotation Xrotation
				JOINT ltoe
				{
					OFFSET 0.041054 -0.060286 0.122042
					CHANNELS 3 Zrotation Yrotation Xrotation
					End Site
					{
						OFFSET 0.000000 0.000000 0.000000
					}
				}
			}
		}
	}
	JOINT rhip
	{
		OFFSET -0.060310 -0.090513 -0.013543
		CHANNELS 3 Zrotation Yrotation Xrotation
		JOINT rknee
		{
			OFFSET -0.043257 -0.383688 -0.004843
			CHANNELS 3 Zrotation Yrotation Xrotation
			JOINT rankle
			{
				OFFSET 0.019056 -0.420046 -0.034562
				CHANNELS 3 Zrotation Yrotation Xrotation
				JOINT rtoe
				{
					OFFSET -0.034840 -0.062106 0.130323
					CHANNELS 3 Zrotation Yrotation Xrotation
					End Site
					{
						OFFSET 0.000000 0.000000 0.000000
					}
				}
			}
		}
	}
	JOINT lowerback
	{
		OFFSET 0.004439 0.124404 -0.038385
		CHANNELS 3 Zrotation Yrotation Xrotation
		JOINT upperback
		{
			OFFSET 0.004488 0.137956 0.026820
			CHANNELS 3 Zrotation Yrotation Xrotation
			JOINT chest
			{
				OFFSET -0.002265 0.056032 0.002855
				CHANNELS 3 Zrotation Yrotation Xrotation
				JOINT lowerneck
				{
					OFFSET -0.013390 0.211636 -0.033468
					CHANNELS 3 Zrotation Yrotation Xrotation
					JOINT upperneck
					{
						OFFSET 0.010113 0.088937 0.050410
						CHANNELS 3 Zrotation Yrotation Xrotation
						End Site
						{
							OFFSET 0.000000 0.000000 0.000000
						}
					}
				}
				JOINT lclavicle
				{
					OFFSET 0.071702 0.114000 -0.018898
					CHANNELS 3 Zrotation Yrotation Xrotation
					JOINT lshoulder
					{
						OFFSET 0.122921 0.045205 -0.019046
						CHANNELS 3 Zrotation Yrotation Xrotation
						JOINT lelbow
						{
							OFFSET 0.255332 -0.015649 -0.022946
							CHANNELS 3 Zrotation Yrotation Xrotation
							JOINT lwrist
							{
								OFFSET 0.265709 0.012698 -0.007375
								CHANNELS 3 Zrotation Yrotation Xrotation
								End Site
								{
									OFFSET 0.000000 0.000000 0.000000
								}
							}
						}
					}
				}
				JOINT rclavicle
				{
					OFFSET -0.082954 0.112472 -0.023707
					CHANNELS 3 Zrotation Yrotation Xrotation
					JOINT rshoulder
					{
						OFFSET -0.113228 0.046853 -0.008472
						CHANNELS 3 Zrotation Yrotation Xrotation
						JOINT relbow
						{
							OFFSET -0.260127 -0.014369 -0.031269
							CHANNELS 3 Zrotation Yrotation Xrotation
							JOINT rwrist
							{
								OFFSET -0.269108 0.006794 -0.006027
								CHANNELS 3 Zrotation Yrotation Xrotation
								End Site
								{
									OFFSET 0.000000 0.000000 0.000000
								}
							}
						}
					}
				}
			}
		}
	}
}
MOTION
Frames: 16
Frame Time: 0.033333
0.113692 -1.220182 1.012487 -141.430758 -0.046118 89.888286 0.782237 -5.525972 -9.442359 -7.535211 -16.736714 10.100397 0.439484 3.944640 -2.960758 0.000000 -0.000000 0.000000 0.328089 -7.159546 2.213981 3.261039 -9.563790 1.579161 1.239357 -12.089735 -6.908870 0.000000 -0.000000 0.000000 0.490928 4.411564 15.415532 -1.846110 -0.153285 -5.170992 1.872452 0.858743 -1.331054 1.380736 11.881992 -3.495962 2.553944 17.497249 3.300595 -26.657790 0.621342 0.196619 -52.844010 -7.795538 4.804197 21.593456 -23.976861 -4.448914 4.829257 -3.395210 -11.230791 20.855265 5.415739 2.692388 51.171400 6.760239 12.969753 -9.839293 21.745281 8.745240 8.319517 2.396530 -6.332988 
0.112085 -1.218963 1.012269 -141.609527 -0.015939 89.928421 0.729483 -5.542931 -9.481331 -7.538406 -16.529086 10.466459 0.487171 4.166260 -3.226398 0.000000 -0.000000 0.000000 0.277875 -7.243565 2.220848 3.267756 -9.356074 1.752793 1.349992 -12.028822 -7.088226 0.000000 -0.000000 0.000000 0.514732 4.540424 15.324303 -1.854167 -0.185349 -5.252994 1.840965 0.864843 -1.243582 1.349869 11.937474 -3.463439 2.423302 17.309477 3.359695 -26.757635 0.709598 0.073735 -52.760054 -7.813973 4.759805 21.440861 -23.847728 -4.423423 5.148830 -3.563501 -11.050158 20.850803 5.235721 2.566752 51.173314 6.640277 13.058004 -9.846711 21.967080 8.808229 8.089082 2.255766 -6.244331 
0.110580 -1.217815 1.012064 -141.880687 -0.013315 89.952140 0.660810 -5.549693 -9.387284 -7.525056 -16.414796 10.596982 0.625007 4.300634 -3.438901 0.000000 -0.000000 0.000000 0.145390 -7.428088 2.232595 3.266577 -9.106994 1.903159 1.437242 -11.879869 -7.195634 0.000000 -0.000000 0.000000 0.468269 4.639994 15.170059 -1.901425 -0.159813 -5.124074 1.826455 0.904974 -1.279984 1.305422 12.189679 -3.311258 2.390989 17.643532 3.421465 -26.771278 0.696746 0.004830 -52.808809 -7.778110 4.737974 21.515485 -23.734218 -4.545380 5.314155 -3.461699 -10.877024 20.849856 5.225159 2.543946 51.082968 6.613581 13.022791 -9.761964 21.997872 8.738243 8.316847 2.329507 -6.206277 
0.108312 -1.216739 1.011979 -142.494131 -0.176322 90.295701 0.393954 -5.764127 -9.636513 -7.550884 -16.139280 10.876400 1.061141 4.554841 -3.604805 0.000000 -0.000000 0.000000 -0.421065 -8.042356 1.781519 3.409076 -8.252659 2.354134 1.594595 -11.601050 -7.249291 0.000000 -0.000000 0.000000 0.419664 4.868957 14.748777 -1.959507 -0.216821 -5.157017 1.633273 0.945513 -1.276010 1.490136 12.170772 -3.268904 2.359057 17.715384 3.829699 -26.821820 0.919761 -0.007932 -52.635192 -7.679569 4.604559 21.203537 -23.731105 -4.216221 4.958492 -3.488486 -10.924264 20.954621 5.156729 2.591447 50.796835 6.744774 12.877686 -9.864823 21.868991 8.572998 8.536376 2.267831 -5.308136 
0.107574 -1.216196 1.012017 -142.647491 -0.136611 90.332768 0.378427 -5.751865 -9.631361 -7.504263 -16.124499 10.985257 1.046440 4.653920 -3.705412 0.000000 -0.000000 0.000000 -0.384152 -7.887039 1.745595 3.370500 -8.213104 2.452807 1.622741 -11.676296 -7.253287 0.000000 -0.000000 0.000000 0.411493 4.873555 14.614261 -1.933335 -0.121978 -5.040906 1.631132 0.907004 -1.294916 1.518026 12.218152 -3.349359 2.253230 17.724502 4.076689 -26.893845 0.963407 0.016904 -52.595832 -7.720210 4.582341 21.199331 -23.694247 -4.214062 4.857960 -3.493854 -10.960869 20.915763 5.079018 2.564389 50.735094 6.835265 12.923427 -9.792852 21.785734 8.734725 8.523603 2.350136 -5.398460 
0.106014 -1.215147 1.012073 -143.050927 -0.096368 90.390144 0.370518 -5.767791 -9.559601 -7.660763 -16.235127 11.035212 1.126218 4.668146 -4.202238 0.000000 -0.000000 0.000000 -0.446329 -7.857196 1.701607 3.335568 -8.024282 2.615453 1.682276 -11.501071 -7.275638 0.000000 -0.000000 0.000000 0.406487 4.928659 14.468817 -1.935734 -0.071330 -4.842286 1.603192 0.963590 -1.551512 1.535056 12.154639 -2.916214 2.475061 17.795293 4.453553 -26.824607 0.900512 0.301657 -52.742823 -7.728368 4.280968 21.416506 -23.534219 -4.452817 4.878068 -3.538608 -10.778317 20.804031 5.124981 2.855170 50.799834 6.916465 12.582895 -9.919250 21.719896 8.595153 8.873263 2.501414 -5.378117 
0.104344 -1.214007 1.012002 -143.430056 -0.097939 90.514091 0.342473 -5.599458 -9.571767 -7.591745 -15.901083 11.221482 1.293919 5.015551 -4.118890 0.000000 -0.000000 0.000000 -0.579327 -7.927890 1.535553 3.375338 -7.610056 2.895288 1.652831 -11.523113 -7.382973 0.000000 -0.000000 0.000000 0.345894 5.085017 14.255041 -1.897403 0.018040 -4.718880 1.603439 0.876787 -1.745608 1.503254 11.976389 -2.450703 2.511043 17.759301 5.000982 -26.791641 0.838475 0.488557 -52.757103 -7.678171 4.245456 21.302495 -23.354900 -4.250491 5.081544 -3.284244 -10.727308 20.840704 5.084077 3.020877 50.664268 6.756862 12.488148 -10.014709 21.969544 8.601376 9.073341 2.421556 -5.567523 
0.102584 -1.213039 1.011953 -143.818905 -0.129474 90.543779 0.224282 -5.669159 -9.605747 -7.714445 -15.761775 11.698026 1.478017 5.413317 -4.632754 0.000000 -0.000000 0.000000 -0.760984 -7.825478 1.438407 3.420094 -7.298972 3.216814 1.616807 -11.574956 -7.569043 0.000000 -0.000000 0.000000 0.390147 5.022636 14.212530 -1.866799 -0.010604 -4.792731 1.469124 0.915649 -1.637676 1.659749 11.890287 -2.550093 2.222873 17.660415 6.469556 -26.879640 0.920623 0.516664 -52.552649 -7.642293 4.241413 21.239856 -23.390723 -4.348546 4.421122 -3.185350 -10.914997 20.958628 5.067115 3.113465 50.538126 6.879088 12.696437 -10.198329 22.019495 8.510131 9.725948 2.431254 -5.556406 
0.100633 -1.211930 1.011498 -144.180165 -0.045194 90.507360 0.053043 -5.733169 -9.806205 -7.757494 -15.657207 12.663840 1.684468 5.850231 -5.336699 0.000000 -0.000000 0.000000 -0.841209 -7.620844 1.477960 3.475751 -7.202566 3.523445 1.651946 -11.485062 -7.859788 0.000000 -0.000000 0.000000 0.527925 4.968095 14.347171 -1.781634 -0.020358 -5.032864 1.375100 0.969185 -1.555275 1.763193 11.511571 -2.350919 2.081604 16.971138 7.896907 -26.809855 0.983621 0.651461 -52.627329 -7.825823 4.140589 21.281442 -22.935991 -4.179067 4.383468 -3.409869 -10.954340 20.899718 4.838086 3.101037 50.641590 7.040601 12.562311 -10.314130 21.930725 8.594476 9.684712 2.473631 -5.951222 
0.098372 -1.210885 1.010732 -144.703280 0.032249 90.529480 -0.139160 -6.211885 -10.339960 -7.971639 -15.155788 14.147957 2.083648 6.279088 -6.559334 0.000000 -0.000000 0.000000 -1.045864 -7.472306 1.047188 3.663473 -6.713333 4.587375 1.758044 -11.492698 -8.564829 0.000000 -0.000000 0.000000 0.601643 4.910935 14.372957 -1.632448 0.029590 -5.161846 1.223498 1.033203 -1.506220 1.877322 10.528518 -2.163414 2.138864 15.672740 9.441296 -26.737453 1.163420 0.709070 -52.617503 -7.873603 4.109324 21.183037 -23.026322 -3.977332 4.143602 -3.293555 -11.305516 20.981088 4.820917 3.250514 50.544771 7.079758 12.464953 -10.440488 22.016292 8.281447 9.774654 2.457370 -6.081961 
0.096020 -1.209809 1.009824 -145.303952 0.212937 90.547148 -0.261266 -6.312681 -10.742757 -7.932139 -14.789263 15.569089 2.503917 7.009000 -7.375334 0.000000 -0.000000 0.000000 -1.152161 -7.432052 0.413114 3.851714 -6.047217 6.078765 1.698166 -11.463394 -9.350736 0.000000 -0.000000 0.000000 0.703002 4.980395 14.243610 -1.414606 0.170957 -5.137387 1.103754 0.983641 -1.104123 1.964081 9.138870 -2.586763 2.065000 13.792947 10.926095 -26.804589 1.331887 0.455266 -52.470401 -8.088721 4.151320 20.966758 -23.023108 -3.726130 3.669443 -3.104020 -11.343831 21.207248 4.711644 3.006324 50.291189 7.037379 12.371551 -10.712346 22.138983 8.070388 10.690051 2.377299 -5.882751 
0.093455 -1.208147 1.008863 -145.981127 0.385565 90.443609 -0.399165 -6.196153 -10.807289 -7.942007 -14.628055 16.618363 2.812317 7.663526 -8.541000 0.000000 -0.000000 0.000000 -1.197483 -7.101091 -0.150370 3.948136 -5.591294 7.767352 1.757146 -11.476846 -10.230798 0.000000 -0.000000 0.000000 0.605243 4.916551 14.371966 -1.146923 0.313464 -5.231812 1.008581 1.025042 -0.824107 2.751140 6.556482 -2.723186 2.246508 10.620906 12.236881 -26.874788 1.586649 0.437880 -52.284777 -8.347427 4.124544 20.832727 -22.897837 -3.615482 4.043983 -3.152826 -10.853410 21.382356 4.466542 2.523655 50.129119 6.896754 12.268353 -10.637034 22.308985 8.140834 10.919932 2.367465 -6.017088 
0.090869 -1.206039 1.007844 -146.898429 0.560932 90.365254 -0.522674 -6.061759 -10.936623 -8.015289 -14.019415 18.150965 3.940445 8.098645 -10.127513 0.000000 -0.000000 0.000000 -1.200658 -6.818799 -1.150286 3.963203 -5.145686 10.084622 1.920381 -11.559295 -11.145624 0.000000 -0.000000 0.000000 0.351861 4.882158 14.470883 -0.821948 0.551532 -5.212287 0.984722 0.938380 -0.567818 3.580890 3.480112 -2.901143 2.360468 7.242098 13.321028 -26.798339 1.969755 0.370525 -52.214227 -8.550883 4.258270 20.541728 -23.004676 -3.386375 2.976816 -3.037181 -10.784046 21.336573 4.402938 2.158521 49.991402 6.775168 12.421185 -10.556122 22.555559 7.855938 12.168011 2.244526 -6.483623 
0.088304 -1.203716 1.006813 -147.943101 0.736390 90.464521 -0.461437 -5.886701 -10.792513 -7.860850 -13.446145 18.450866 4.135418 8.703391 -10.456100 0.000000 -0.000000 0.000000 -1.268710 -6.761465 -2.835932 4.143823 -4.441604 13.241514 2.067782 -11.708476 -12.028947 0.000000 -0.000000 0.000000 -0.138326 4.754908 14.270872 -0.383901 0.730280 -5.192193 1.003564 0.889480 -0.068957 4.577645 1.074718 -3.290797 2.444511 4.211607 14.304494 -26.873392 2.166185 0.311739 -52.045966 -8.685046 4.492634 20.438404 -22.533341 -3.468116 4.038062 -2.963720 -10.612909 21.628248 4.387819 1.775151 49.783844 6.695680 12.722114 -10.813074 22.734613 7.266767 11.923350 2.181381 -6.418650 
0.084887 -1.199646 1.005851 -148.710464 0.999652 90.070515 -0.458191 -5.420589 -9.839602 -7.854253 -13.591972 18.662673 4.514648 9.216233 -11.219853 0.000000 -0.000000 0.000000 -1.158379 -5.202367 -3.831673 4.374175 -4.657638 16.413010 2.349768 -12.344497 -12.930935 0.000000 -0.000000 0.000000 -0.567422 4.131732 14.584579 0.053386 0.902498 -5.044964 1.010659 0.754377 0.187593 5.481153 -1.194238 -2.982019 2.759855 1.324704 14.716447 -26.912104 2.234580 0.324767 -51.863697 -8.500647 4.877053 20.369743 -22.215303 -3.659818 4.003271 -2.884009 -10.652766 21.983672 4.544540 1.529748 49.641270 6.339146 13.098876 -11.247021 23.216014 6.814293 10.519328 2.150381 -6.153905 
0.081517 -1.196385 1.004479 -149.783895 1.247983 90.007964 -0.304990 -5.113695 -8.977824 -7.881450 -13.780710 17.745225 3.976914 9.590084 -11.702919 0.000000 -0.000000 0.000000 -1.478330 -4.273999 -5.967855 5.109980 -5.125498 20.864238 2.571787 -12.549321 -13.284430 0.000000 -0.000000 0.000000 -0.878482 3.510753 14.842331 0.376616 1.120676 -5.063893 1.004857 0.476145 0.488867 6.609560 -3.374563 -3.194796 2.660103 -1.664158 15.193048 -27.009703 2.483354 0.176701 -51.659878 -8.367234 5.130322 20.312841 -21.925545 -3.584205 2.508143 -3.044165 -10.472571 22.047537 4.316373 1.256715 49.600219 6.613289 13.127263 -11.243253 23.506361 7.037536 10.322610 2.292799 -5.594090 
